<?xml version="1.0" standalone="no"?>
<!DOCTYPE svg PUBLIC "-//W3C//DTD SVG 20010904//EN"
 "http://www.w3.org/TR/2001/REC-SVG-20010904/DTD/svg10.dtd">
<svg version="1.0" xmlns="http://www.w3.org/2000/svg"
 width="476.000000pt" height="476.000000pt" viewBox="0 0 476.000000 476.000000"
 preserveAspectRatio="xMidYMid meet">
<metadata>
Created by potrace 1.14, written by Peter Selinger 2001-2017
</metadata>
<g transform="translate(0.000000,476.000000) scale(0.100000,-0.100000)"
fill="#000000" stroke="none">
<path d="M0 2380 l0 -2380 2380 0 2380 0 0 2380 0 2380 -2380 0 -2380 0 0
-2380z m2245 1310 c9 -28 -25 -65 -72 -81 -19 -6 -35 -9 -36 -7 -1 1 -8 13
-15 26 -10 19 -10 22 3 22 9 0 15 6 14 13 -5 38 1 43 50 46 43 2 50 -1 56 -19z
m-155 -36 c0 -32 -26 -54 -65 -54 -35 0 -55 20 -55 54 0 24 15 19 28 -9 15
-33 31 -32 43 4 13 36 49 39 49 5z m-705 -249 c-21 -20 -52 -33 -62 -27 -6 4
-14 18 -18 32 l-8 25 20 -24 20 -24 11 32 c11 31 12 31 29 14 13 -13 16 -21 8
-28z"/>
</g>
</svg>
